<?xml version="1.0" encoding="UTF-8"?>
<svg version="1.1" viewBox="0 0 245.47 280.53" xmlns="http://www.w3.org/2000/svg" xmlns:cc="http://creativecommons.org/ns#" xmlns:dc="http://purl.org/dc/elements/1.1/" xmlns:rdf="http://www.w3.org/1999/02/22-rdf-syntax-ns#" xmlns:xlink="http://www.w3.org/1999/xlink">
<metadata>
<rdf:RDF>
<cc:Work rdf:about="">
<dc:format>image/svg+xml</dc:format>
<dc:type rdf:resource="http://purl.org/dc/dcmitype/StillImage"/>
<dc:title>canadiana-logo-mark-full-color-rgb</dc:title>
</cc:Work>
</rdf:RDF>
</metadata>
<defs>
<linearGradient id="a" x1="3.5067" x2="3.5067" y1="105.2" y2="175.33" gradientUnits="userSpaceOnUse">
<stop stop-color="#87c837" offset=".001"/>
<stop stop-color="#00779b" offset="1"/>
</linearGradient>
<linearGradient id="bw" x1="73.64" x2="73.64" y1="164.81" y2="171.83" xlink:href="#a"/>
<linearGradient id="av" x1="17.533" x2="17.533" y1="77.147" y2="203.39" xlink:href="#a"/>
<linearGradient id="bg" x1="31.56" x2="31.56" y1="52.6" y2="227.93" xlink:href="#a"/>
<linearGradient id="bh" x1="45.587" x2="45.587" y1="38.574" y2="206.89" xlink:href="#a"/>
<linearGradient id="bi" x1="59.614" x2="59.614" y1="24.547" y2="77.147" xlink:href="#a"/>
<linearGradient id="bj" x1="73.64" x2="73.64" y1="17.533" y2="115.72" xlink:href="#a"/>
<linearGradient id="bk" x1="87.667" x2="87.667" y1="10.52" y2="94.68" xlink:href="#a"/>
<linearGradient id="bl" x1="101.69" x2="101.69" y1="35.067" y2="84.16" xlink:href="#a"/>
<linearGradient id="bm" x1="101.69" x2="101.69" y1="3.5067" y2="28.053" xlink:href="#a"/>
<linearGradient id="bn" x1="115.72" x2="115.72" y2="77.147" xlink:href="#a"/>
<linearGradient id="bo" x1="87.667" x2="87.667" y1="185.85" y2="270.01" xlink:href="#a"/>
<linearGradient id="bp" x1="73.64" x2="73.64" y1="178.84" y2="263" xlink:href="#a"/>
<linearGradient id="bq" x1="101.69" x2="101.69" y1="196.37" y2="277.03" xlink:href="#a"/>
<linearGradient id="br" x1="115.72" x2="115.72" y1="203.39" y2="238.45" xlink:href="#a"/>
<linearGradient id="bs" x1="115.72" x2="115.72" y1="245.47" y2="280.53" xlink:href="#a"/>
<linearGradient id="bt" x1="129.75" x2="129.75" y1="206.89" y2="280.53" xlink:href="#a"/>
<linearGradient id="bu" x1="129.75" x2="129.75" y2="73.64" xlink:href="#a"/>
<linearGradient id="bv" x1="143.77" x2="143.77" y1="210.4" y2="280.53" xlink:href="#a"/>
<linearGradient id="bx" x1="143.77" x2="143.77" y2="56.107" xlink:href="#a"/>
<linearGradient id="by" x1="157.8" x2="157.8" y2="73.64" xlink:href="#a"/>
<linearGradient id="an" x1="171.83" x2="171.83" y1="3.5067" y2="77.147" xlink:href="#a"/>
<linearGradient id="ao" x1="185.85" x2="185.85" y1="7.0134" y2="87.667" xlink:href="#a"/>
<linearGradient id="ap" x1="185.85" x2="185.85" y1="192.87" y2="238.45" xlink:href="#a"/>
<linearGradient id="aq" x1="185.85" x2="185.85" y1="259.49" y2="273.52" xlink:href="#a"/>
<linearGradient id="ar" x1="199.88" x2="199.88" y1="14.027" y2="80.654" xlink:href="#a"/>
<linearGradient id="as" x1="199.88" x2="199.88" y1="199.88" y2="266.51" xlink:href="#a"/>
<linearGradient id="at" x1="213.91" x2="213.91" y1="21.04" y2="66.627" xlink:href="#a"/>
<linearGradient id="au" x1="213.91" x2="213.91" y1="213.91" y2="259.49" xlink:href="#a"/>
<linearGradient id="aw" x1="227.93" x2="227.93" y1="31.56" y2="52.6" xlink:href="#a"/>
<linearGradient id="ax" x1="227.93" x2="227.93" y1="227.93" y2="248.97" xlink:href="#a"/>
<linearGradient id="ay" x1="171.83" x2="171.83" y1="203.39" y2="277.03" xlink:href="#a"/>
<linearGradient id="az" x1="157.8" x2="157.8" y1="206.89" y2="280.53" xlink:href="#a"/>
<linearGradient id="ba" x1="241.96" x2="241.96" y1="42.08" y2="49.094" xlink:href="#a"/>
<linearGradient id="bb" x1="143.77" x2="143.77" y1="63.12" y2="70.134" xlink:href="#a"/>
<linearGradient id="bc" x1="241.96" x2="241.96" y1="231.44" y2="238.45" xlink:href="#a"/>
<linearGradient id="bd" x1="185.85" x2="185.85" y1="245.47" y2="252.48" xlink:href="#a"/>
<linearGradient id="be" x1="59.614" x2="59.614" y1="84.16" y2="255.99" xlink:href="#a"/>
<linearGradient id="bf" x1="45.587" x2="45.587" y1="213.91" y2="241.96" xlink:href="#a"/>
</defs>
<title>canadiana-logo-mark-full-color-rgb</title>
<path d="M3.5067,175.334A3.5065,3.5065,0,0,1,0,171.8274v-63.12a3.5067,3.5067,0,0,1,7.0134,0v63.12A3.5066,3.5066,0,0,1,3.5067,175.334Z" fill="url(#a)" data-name="logoMark &lt;PathItem&gt;"/>
<circle cx="73.64" cy="168.32" r="3.5067" fill="url(#bw)" data-name="logoMark &lt;PathItem&gt;"/>
<path d="m17.533 203.39a3.5066 3.5066 0 0 1-3.5067-3.5067v-119.23a3.5067 3.5067 0 0 1 7.0134 0v119.23a3.5066 3.5066 0 0 1-3.5067 3.5067z" fill="url(#av)" data-name="logoMark &lt;PathItem&gt;"/>
<path d="m31.56 227.93a3.5067 3.5067 0 0 1-3.5067-3.5067v-168.32a3.5067 3.5067 0 0 1 7.0134 0v168.32a3.5066 3.5066 0 0 1-3.5067 3.5067z" fill="url(#bg)" data-name="logoMark &lt;PathItem&gt;"/>
<path d="m45.587 206.89a3.5066 3.5066 0 0 1-3.5067-3.5067v-161.31a3.5067 3.5067 0 1 1 7.0133 0v161.31a3.5066 3.5066 0 0 1-3.5066 3.5067z" fill="url(#bh)" data-name="logoMark &lt;PathItem&gt;"/>
<path d="m59.614 77.147a3.5066 3.5066 0 0 1-3.5067-3.507v-45.587a3.5067 3.5067 0 0 1 7.0134 0v45.587a3.5067 3.5067 0 0 1-3.5067 3.507z" fill="url(#bi)" data-name="logoMark &lt;PathItem&gt;"/>
<path d="m73.64 115.72a3.5067 3.5067 0 0 1-3.5067-3.5067v-91.174a3.5067 3.5067 0 0 1 7.0134 0v91.174a3.5067 3.5067 0 0 1-3.5067 3.5068z" fill="url(#bj)" data-name="logoMark &lt;PathItem&gt;"/>
<path d="m87.667 94.68a3.5067 3.5067 0 0 1-3.507-3.5063v-77.147a3.5067 3.5067 0 1 1 7.0134 0v77.147a3.5066 3.5066 0 0 1-3.5064 3.5063z" fill="url(#bk)" data-name="logoMark &lt;PathItem&gt;"/>
<path d="m101.69 84.16a3.5065 3.5065 0 0 1-3.5066-3.5066v-42.08a3.5067 3.5067 0 1 1 7.0133 0v42.08a3.5065 3.5065 0 0 1-3.5067 3.5066z" fill="url(#bl)" data-name="logoMark &lt;PathItem&gt;"/>
<path d="m101.69 28.053a3.5065 3.5065 0 0 1-3.5066-3.5066v-17.533a3.5067 3.5067 0 1 1 7.0133 0v17.533a3.5065 3.5065 0 0 1-3.5067 3.5066z" fill="url(#bm)" data-name="logoMark &lt;PathItem&gt;"/>
<path d="m115.72 77.147a3.5066 3.5066 0 0 1-3.5067-3.5067v-70.134a3.5067 3.5067 0 1 1 7.0134 0v70.133a3.5067 3.5067 0 0 1-3.5067 3.507z" fill="url(#bn)" data-name="logoMark &lt;PathItem&gt;"/>
<path d="m87.667 270.01a3.5066 3.5066 0 0 1-3.5067-3.5066v-77.147a3.5067 3.5067 0 1 1 7.0134 0v77.147a3.5065 3.5065 0 0 1-3.5067 3.5066z" fill="url(#bo)" data-name="logoMark &lt;PathItem&gt;"/>
<path d="m73.64 263a3.5067 3.5067 0 0 1-3.5067-3.5067v-77.147a3.5067 3.5067 0 0 1 7.0134 0v77.147a3.5067 3.5067 0 0 1-3.5067 3.5067z" fill="url(#bp)" data-name="logoMark &lt;PathItem&gt;"/>
<path d="m101.69 277.03a3.5065 3.5065 0 0 1-3.5066-3.5067v-73.64a3.5067 3.5067 0 1 1 7.0133 0v73.64a3.5066 3.5066 0 0 1-3.5067 3.5067z" fill="url(#bq)" data-name="logoMark &lt;PathItem&gt;"/>
<path d="m115.72 238.45a3.5066 3.5066 0 0 1-3.5067-3.5067v-28.053a3.5067 3.5067 0 1 1 7.0134 0v28.053a3.5066 3.5066 0 0 1-3.5067 3.5067z" fill="url(#br)" data-name="logoMark &lt;PathItem&gt;"/>
<path d="m115.72 280.53a3.5066 3.5066 0 0 1-3.5067-3.5067v-28.054a3.5067 3.5067 0 0 1 7.0134 0v28.054a3.5067 3.5067 0 0 1-3.5067 3.5067z" fill="url(#bs)" data-name="logoMark &lt;PathItem&gt;"/>
<path d="m129.75 280.53a3.5067 3.5067 0 0 1-3.5067-3.5067v-66.627a3.5067 3.5067 0 0 1 7.0134 0v66.627a3.5067 3.5067 0 0 1-3.5067 3.5067z" fill="url(#bt)" data-name="logoMark &lt;PathItem&gt;"/>
<path d="m129.75 73.64a3.5066 3.5066 0 0 1-3.5067-3.5067v-66.627a3.5067 3.5067 0 1 1 7.0134 0v66.627a3.5066 3.5066 0 0 1-3.5067 3.5064z" fill="url(#bu)" data-name="logoMark &lt;PathItem&gt;"/>
<path d="m143.77 280.53a3.5067 3.5067 0 0 1-3.5067-3.5067v-63.12a3.5067 3.5067 0 0 1 7.0134 0v63.12a3.5066 3.5066 0 0 1-3.5067 3.5067z" fill="url(#bv)" data-name="logoMark &lt;PathItem&gt;"/>
<path d="m143.77 56.107a3.5066 3.5066 0 0 1-3.5067-3.5069v-49.093a3.5067 3.5067 0 1 1 7.0134 0v49.093a3.5066 3.5066 0 0 1-3.5067 3.5069z" fill="url(#bx)" data-name="logoMark &lt;PathItem&gt;"/>
<path d="m157.8 73.64a3.5065 3.5065 0 0 1-3.5066-3.5067v-66.627a3.5067 3.5067 0 1 1 7.0133 0v66.627a3.5066 3.5066 0 0 1-3.5067 3.5064z" fill="url(#by)" data-name="logoMark &lt;PathItem&gt;"/>
<path d="m171.83 77.147a3.5066 3.5066 0 0 1-3.5067-3.5067v-66.627a3.5067 3.5067 0 1 1 7.0134 0v66.627a3.5067 3.5067 0 0 1-3.5067 3.507z" fill="url(#an)" data-name="logoMark &lt;PathItem&gt;"/>
<path d="m185.85 87.667a3.5066 3.5066 0 0 1-3.5067-3.5067v-73.64a3.5067 3.5067 0 0 1 7.0134 0v73.64a3.5066 3.5066 0 0 1-3.5067 3.507z" fill="url(#ao)" data-name="logoMark &lt;PathItem&gt;"/>
<path d="m185.85 238.45a3.5066 3.5066 0 0 1-3.5067-3.5067v-38.574a3.5067 3.5067 0 0 1 7.0134 0v38.574a3.5066 3.5066 0 0 1-3.5067 3.5067z" fill="url(#ap)" data-name="logoMark &lt;PathItem&gt;"/>
<path d="m185.85 273.52a3.5066 3.5066 0 0 1-3.5067-3.5067v-7.0133a3.5067 3.5067 0 1 1 7.0134 0v7.0133a3.5066 3.5066 0 0 1-3.5067 3.5067z" fill="url(#aq)" data-name="logoMark &lt;PathItem&gt;"/>
<path d="m199.88 80.654a3.5067 3.5067 0 0 1-3.5067-3.5067v-59.614a3.5067 3.5067 0 1 1 7.0134 0v59.614a3.5066 3.5066 0 0 1-3.5067 3.5067z" fill="url(#ar)" data-name="logoMark &lt;PathItem&gt;"/>
<path d="m199.88 266.51a3.5067 3.5067 0 0 1-3.5067-3.5067v-59.614a3.5067 3.5067 0 1 1 7.0134 0v59.614a3.5066 3.5066 0 0 1-3.5067 3.5067z" fill="url(#as)" data-name="logoMark &lt;PathItem&gt;"/>
<path d="m213.91 66.627a3.5065 3.5065 0 0 1-3.5066-3.5066v-38.574a3.5067 3.5067 0 1 1 7.0133 0v38.573a3.5065 3.5065 0 0 1-3.5067 3.5069z" fill="url(#at)" data-name="logoMark &lt;PathItem&gt;"/>
<path d="m213.91 259.49a3.5065 3.5065 0 0 1-3.5066-3.5067v-38.574a3.5067 3.5067 0 1 1 7.0133 0v38.574a3.5066 3.5066 0 0 1-3.5067 3.5067z" fill="url(#au)" data-name="logoMark &lt;PathItem&gt;"/>
<path d="m227.93 52.6a3.5066 3.5066 0 0 1-3.5067-3.5067v-14.026a3.5067 3.5067 0 1 1 7.0133 0v14.027a3.5065 3.5065 0 0 1-3.5066 3.5065z" fill="url(#aw)" data-name="logoMark &lt;PathItem&gt;"/>
<path d="m227.93 248.97a3.5065 3.5065 0 0 1-3.5067-3.5066v-14.027a3.5067 3.5067 0 0 1 7.0133 0v14.027a3.5065 3.5065 0 0 1-3.5066 3.5066z" fill="url(#ax)" data-name="logoMark &lt;PathItem&gt;"/>
<path d="m171.83 277.03a3.5066 3.5066 0 0 1-3.5067-3.5067v-66.627a3.5067 3.5067 0 1 1 7.0134 0v66.627a3.5066 3.5066 0 0 1-3.5067 3.5067z" fill="url(#ay)" data-name="logoMark &lt;PathItem&gt;"/>
<path d="m157.8 280.53a3.5066 3.5066 0 0 1-3.5066-3.5067v-66.627a3.5067 3.5067 0 1 1 7.0133 0v66.627a3.5066 3.5066 0 0 1-3.5067 3.5067z" fill="url(#az)" data-name="logoMark &lt;PathItem&gt;"/>
<circle cx="241.96" cy="45.587" r="3.5067" fill="url(#ba)" data-name="logoMark &lt;PathItem&gt;"/>
<circle cx="143.77" cy="66.627" r="3.5067" fill="url(#bb)" data-name="logoMark &lt;PathItem&gt;"/>
<circle cx="241.96" cy="234.95" r="3.5067" fill="url(#bc)" data-name="logoMark &lt;PathItem&gt;"/>
<circle cx="185.85" cy="248.97" r="3.5067" fill="url(#bd)" data-name="logoMark &lt;PathItem&gt;"/>
<path d="m59.614 255.99a3.5066 3.5066 0 0 1-3.5067-3.5067v-164.81a3.5067 3.5067 0 0 1 7.0134 0v164.81a3.5066 3.5066 0 0 1-3.5067 3.5067z" fill="url(#be)" data-name="logoMark &lt;PathItem&gt;"/>
<path d="m45.587 241.96a3.5066 3.5066 0 0 1-3.5067-3.5067v-21.04a3.5067 3.5067 0 1 1 7.0133 0v21.04a3.5066 3.5066 0 0 1-3.5066 3.5067z" fill="url(#bf)" data-name="logoMark &lt;PathItem&gt;"/>
</svg>
